<svg width="430" height="392" viewBox="0 0 430 392" fill="none" xmlns="http://www.w3.org/2000/svg">
<g clip-path="url(#clip0_31_6480)">
<path d="M40.8697 26.6405C40.4253 26.6384 39.9819 26.4729 39.6343 26.1429L26.6637 13.7989C25.9413 13.112 25.9132 11.9691 26.6002 11.2468C27.2871 10.5245 28.4299 10.4964 29.1522 11.1833L42.1229 23.5274C42.8452 24.2143 42.8733 25.3571 42.1864 26.0795C41.8294 26.4541 41.3506 26.6425 40.8697 26.6405Z" fill="#F1EBFF"/>
<path d="M409.034 117.447C409.366 117.151 409.806 116.977 410.285 116.99L428.184 117.49C429.18 117.518 429.966 118.349 429.938 119.345C429.91 120.341 429.08 121.127 428.083 121.099L410.184 120.598C409.188 120.57 408.402 119.739 408.43 118.743C408.445 118.226 408.676 117.766 409.034 117.447Z" fill="#F9822E"/>
<path d="M408.782 171.398C409.208 171.271 409.681 171.301 410.109 171.516L426.1 179.572C426.99 180.02 427.349 181.106 426.9 181.996C426.453 182.886 425.367 183.245 424.476 182.796L408.485 174.74C407.595 174.291 407.236 173.205 407.685 172.316C407.918 171.854 408.322 171.535 408.782 171.398Z" fill="#F1EBFF"/>
<path d="M372.247 319.895C372.247 319.895 136.784 342.829 136.531 341.821C136.278 340.814 83.9148 83.9449 83.9148 83.9449C83.9148 83.9449 300.295 45.9489 301.389 45.9854C302.483 46.0228 372.247 319.895 372.247 319.895Z" fill="#40C77D"/>
<path d="M366.439 86.3907V20.4978L423.503 53.4437L366.439 86.3907Z" fill="#FFD028"/>
<path d="M105.793 309.577C129.034 331.055 133.285 365.399 117.703 391.541C76.6426 376.101 42.6403 342.795 26.1028 302.183C50.667 286.716 83.4568 288.936 105.793 309.577Z" fill="#F9822E"/>
<path d="M284.011 374.997H224.52C223.523 374.997 222.716 374.189 222.716 373.192C222.716 372.195 223.523 371.387 224.52 371.387H284.011C285.008 371.387 285.816 372.195 285.816 373.192C285.816 374.189 285.008 374.997 284.011 374.997Z" fill="#F1EBFF"/>
<path d="M87.6493 356.301C86.7552 356.301 85.9798 355.637 85.8622 354.727L48.4762 65.9396C48.3481 64.9509 49.0455 64.0454 50.0342 63.9184C51.023 63.7872 51.9275 64.4877 52.0555 65.4765L89.4405 354.264C89.5685 355.253 88.8712 356.158 87.8824 356.285C87.8033 356.296 87.7252 356.301 87.6482 356.301H87.6493Z" fill="#F1EBFF"/>
<path d="M147.139 356.301C146.245 356.301 145.47 355.637 145.352 354.727L107.982 66.0555C107.96 65.9431 107.948 65.8265 107.948 65.7079C107.948 64.7108 108.753 63.9031 109.75 63.9031C110.658 63.9031 111.431 64.5765 111.547 65.4758L148.932 354.263C149.06 355.252 148.363 356.157 147.374 356.284C147.295 356.295 147.217 356.3 147.14 356.3L147.139 356.301Z" fill="#F1EBFF"/>
<path d="M147.142 356.3H87.6514C86.6543 356.3 85.8466 355.492 85.8466 354.495C85.8466 353.498 86.6543 352.69 87.6514 352.69H147.127C148.124 352.69 148.939 353.498 148.939 354.495C148.939 355.492 148.138 356.3 147.141 356.3H147.142Z" fill="#F1EBFF"/>
<path d="M148.84 369.494C147.947 369.494 147.17 368.831 147.053 367.922L145.34 354.727C145.212 353.738 145.91 352.833 146.898 352.705C147.887 352.578 148.792 353.274 148.92 354.262L150.632 367.456C150.76 368.445 150.063 369.351 149.075 369.479C148.996 369.489 148.918 369.494 148.84 369.494Z" fill="#F1EBFF"/>
<path d="M208.326 369.495C207.432 369.495 206.657 368.831 206.539 367.922L176.45 135.462C176.322 134.473 177.02 133.568 178.009 133.441C178.998 133.312 179.902 134.01 180.03 134.999L210.119 367.459C210.247 368.447 209.549 369.353 208.561 369.48C208.481 369.49 208.403 369.495 208.326 369.495Z" fill="#F1EBFF"/>
<path d="M208.33 369.492H148.84C147.843 369.492 147.035 368.684 147.035 367.687C147.035 366.69 147.843 365.883 148.84 365.883H208.136L223.002 362.65C223.976 362.44 224.937 363.056 225.149 364.03C225.361 365.004 224.743 365.966 223.769 366.177L208.714 369.451C208.588 369.479 208.459 369.493 208.33 369.493V369.492Z" fill="#F1EBFF"/>
<path d="M109.756 67.5126H109.749C108.752 67.5126 107.944 66.705 107.944 65.7079C107.944 64.7108 108.752 63.9031 109.749 63.9031C110.746 63.9031 111.558 64.7108 111.558 65.7079C111.558 66.705 110.753 67.5126 109.757 67.5126H109.756Z" fill="#F1EBFF"/>
<path d="M224.518 374.997C223.624 374.997 222.849 374.333 222.731 373.423L198.891 189.286C198.763 188.297 199.461 187.392 200.45 187.265C201.439 187.132 202.343 187.834 202.471 188.823L226.311 372.96C226.439 373.949 225.741 374.855 224.753 374.982C224.673 374.992 224.595 374.997 224.518 374.997Z" fill="#F1EBFF"/>
<path d="M284.009 374.997C283.115 374.997 282.34 374.333 282.222 373.423L258.382 189.286C258.254 188.297 258.952 187.392 259.94 187.265C260.927 187.132 261.834 187.834 261.962 188.823L285.802 372.96C285.93 373.949 285.232 374.855 284.243 374.982C284.164 374.992 284.086 374.997 284.009 374.997Z" fill="#F1EBFF"/>
<path d="M358.716 157.967C357.874 157.967 357.12 157.373 356.948 156.516L344.188 92.8543L178.705 136.974C178.553 137.015 178.397 137.035 178.24 137.035H118.756C117.759 137.035 116.951 136.227 116.951 135.23C116.951 134.233 117.759 133.425 118.756 133.425H178.002L345.113 88.8711C345.594 88.7431 346.108 88.819 346.531 89.0824C346.955 89.3457 347.25 89.7714 347.348 90.2606L360.486 155.807C360.682 156.784 360.049 157.735 359.071 157.931C358.951 157.955 358.832 157.967 358.714 157.967H358.716Z" fill="#F1EBFF"/>
<path d="M284.011 374.997C283.257 374.997 282.554 374.52 282.3 373.766C281.983 372.821 282.492 371.798 283.437 371.48L400.078 332.304L372.59 155.433L260.716 190.775C260.54 190.83 260.357 190.858 260.173 190.858H200.683C199.811 190.858 199.063 190.235 198.907 189.377C198.751 188.52 199.23 187.673 200.046 187.365L342.819 133.542C343.751 133.19 344.793 133.662 345.145 134.594C345.496 135.527 345.025 136.567 344.092 136.919L210.586 187.249H259.894L373.507 151.358C374.008 151.2 374.555 151.268 375.002 151.546C375.45 151.824 375.754 152.283 375.834 152.802L403.879 333.254C404.014 334.123 403.503 334.963 402.67 335.242L284.587 374.902C284.396 374.967 284.203 374.997 284.012 374.997H284.011Z" fill="#F1EBFF"/>
<path d="M322.18 91.9705C321.242 91.9705 320.45 91.2461 320.381 90.2958L315.04 16.8185L110.189 67.4583C110.047 67.4937 109.902 67.5114 109.756 67.5114H50.2662C49.3669 67.5114 48.6051 66.8494 48.4791 65.9585C48.3532 65.0675 48.9027 64.2203 49.7666 63.9715L271.592 0.071817C272.55 -0.20504 273.55 0.348674 273.827 1.30622C274.103 2.26377 273.55 3.26399 272.592 3.54085L63.0516 63.9029H109.536L316.252 12.802C316.769 12.673 317.315 12.7812 317.746 13.0934C318.177 13.4057 318.448 13.8928 318.486 14.4236L323.983 90.0356C324.054 91.0296 323.307 91.8945 322.313 91.9674C322.268 91.9705 322.225 91.9726 322.181 91.9726L322.18 91.9705Z" fill="#F1EBFF"/>
<path d="M118.756 134.913C117.988 134.913 117.276 134.419 117.035 133.648C116.737 132.696 117.266 131.684 118.217 131.386L308.072 71.8963C309.023 71.5996 310.036 72.1273 310.334 73.0786C310.631 74.0299 310.102 75.0427 309.151 75.3403L119.296 134.83C119.117 134.886 118.935 134.913 118.756 134.913Z" fill="#F1EBFF"/>
<path d="M299.174 20.4697C299.1 20.4697 299.025 20.4645 298.949 20.4552C286.472 18.9075 274.36 13.3808 264.847 4.89501C264.103 4.23201 264.037 3.09023 264.701 2.34605C265.364 1.60291 266.506 1.53734 267.25 2.20034C276.222 10.2021 287.638 15.4124 299.395 16.8717C300.383 16.9945 301.086 17.8958 300.963 18.8856C300.85 19.7995 300.072 20.4687 299.174 20.4687V20.4697Z" fill="#F1EBFF"/>
<path d="M331.814 95.5936C331.658 95.5936 331.498 95.5727 331.34 95.5301C320.081 92.4794 309.788 85.8453 302.36 76.8506C301.725 76.0825 301.833 74.9438 302.602 74.3099C303.37 73.6751 304.508 73.7833 305.143 74.5525C312.101 82.9768 321.739 89.1894 332.284 92.0465C333.246 92.3067 333.815 93.2986 333.554 94.2603C333.336 95.0648 332.608 95.5936 331.813 95.5936H331.814Z" fill="#F1EBFF"/>
<path d="M360.896 158.835C360.692 158.835 360.484 158.799 360.281 158.726C350.409 155.147 342.088 147.692 337.451 138.27C337.011 137.376 337.379 136.294 338.273 135.853C339.168 135.413 340.25 135.782 340.69 136.676C344.919 145.269 352.507 152.068 361.511 155.332C362.448 155.672 362.933 156.707 362.593 157.644C362.326 158.378 361.634 158.835 360.896 158.835Z" fill="#F1EBFF"/>
<path d="M104.536 271.577C94.7601 271.577 84.9827 269.721 75.8391 266.001C74.9159 265.625 74.4715 264.572 74.8472 263.649C75.223 262.726 76.2763 262.281 77.1995 262.657C95.0671 269.924 115.48 269.725 133.203 262.109C134.12 261.715 135.18 262.14 135.574 263.055C135.967 263.971 135.543 265.033 134.627 265.426C125.093 269.523 114.814 271.576 104.536 271.576V271.577Z" fill="#F1EBFF"/>
<path d="M169.327 314.447C159.551 314.447 149.773 312.591 140.63 308.871C139.707 308.495 139.262 307.442 139.638 306.519C140.014 305.596 141.067 305.15 141.99 305.527C159.858 312.795 180.27 312.595 197.993 304.979C198.909 304.586 199.971 305.01 200.364 305.926C200.758 306.842 200.334 307.903 199.418 308.297C189.883 312.393 179.605 314.446 169.327 314.446V314.447Z" fill="#F1EBFF"/>
<path d="M171.304 331.44C161.527 331.44 151.75 329.584 142.606 325.865C141.683 325.489 141.239 324.435 141.614 323.512C141.99 322.589 143.043 322.145 143.967 322.52C161.835 329.788 182.248 329.589 199.97 321.973C200.887 321.579 201.947 322.003 202.341 322.919C202.734 323.835 202.311 324.897 201.395 325.29C191.86 329.387 181.582 331.439 171.304 331.439V331.44Z" fill="#F1EBFF"/>
<path d="M151.764 169.657C141.988 169.657 132.211 167.801 123.067 164.083C122.144 163.707 121.699 162.655 122.075 161.73C122.451 160.807 123.504 160.363 124.427 160.738C142.295 168.004 162.708 167.806 180.431 160.191C181.345 159.797 182.408 160.221 182.801 161.137C183.195 162.053 182.771 163.115 181.855 163.508C172.32 167.605 162.043 169.657 151.764 169.657Z" fill="#F1EBFF"/>
<path d="M153.74 186.65C143.964 186.65 134.186 184.795 125.043 181.076C124.119 180.7 123.675 179.648 124.051 178.723C124.426 177.8 125.48 177.356 126.403 177.732C144.271 184.999 164.683 184.799 182.406 177.184C183.322 176.791 184.384 177.214 184.777 178.13C185.17 179.046 184.747 180.108 183.831 180.501C174.296 184.598 164.018 186.65 153.74 186.65Z" fill="#F1EBFF"/>
<path d="M107.152 288.93C97.3756 288.93 87.5982 287.074 78.4546 283.354C77.5314 282.979 77.087 281.925 77.4628 281.002C77.8385 280.079 78.8918 279.635 79.815 280.01C97.6826 287.277 118.095 287.079 135.818 279.463C136.735 279.069 137.796 279.493 138.189 280.409C138.582 281.325 138.159 282.387 137.243 282.78C127.708 286.877 117.43 288.929 107.152 288.929V288.93Z" fill="#F1EBFF"/>
<path d="M111.931 327.211C102.155 327.211 92.3787 325.354 83.2352 321.635C82.312 321.26 81.8675 320.206 82.2433 319.283C82.619 318.36 83.6723 317.915 84.5955 318.291C102.463 325.559 122.876 325.358 140.599 317.744C141.515 317.35 142.576 317.774 142.97 318.69C143.363 319.606 142.939 320.668 142.023 321.061C132.489 325.158 122.211 327.21 111.932 327.21L111.931 327.211Z" fill="#F1EBFF"/>
<path d="M236.657 255.167C227.852 255.167 220.688 248.003 220.688 239.198C220.688 230.393 227.852 223.229 236.657 223.229C245.463 223.229 252.627 230.393 252.627 239.198C252.627 248.003 245.463 255.167 236.657 255.167ZM236.657 226.838C229.842 226.838 224.298 232.383 224.298 239.197C224.298 246.011 229.842 251.557 236.657 251.557C243.473 251.557 249.016 246.012 249.016 239.197C249.016 232.382 243.472 226.838 236.657 226.838Z" fill="#F1EBFF"/>
<path d="M106.631 161.966H79.1354C78.2299 161.966 77.4639 161.295 77.3462 160.397L69.3653 99.6681C69.2987 99.1581 69.4527 98.644 69.7879 98.2537C70.124 97.8644 70.6101 97.6365 71.1243 97.6281L98.9515 97.1671C99.8736 97.1587 100.658 97.8332 100.773 98.7481L108.422 159.938C108.486 160.452 108.326 160.968 107.984 161.356C107.641 161.744 107.148 161.967 106.631 161.967V161.966ZM80.7185 158.357H104.586L97.3923 100.804L73.208 101.204L80.7185 158.357Z" fill="#F1EBFF"/>
<path d="M241.613 349.425C240.72 349.425 239.944 348.763 239.826 347.854L229.911 271.86C229.782 270.871 230.478 269.965 231.467 269.836C232.456 269.702 233.361 270.404 233.49 271.392L243.405 347.386C243.534 348.375 242.838 349.281 241.849 349.41C241.77 349.42 241.691 349.425 241.613 349.425Z" fill="#F1EBFF"/>
<path d="M257.446 349.425C256.553 349.425 255.777 348.763 255.659 347.854L245.744 271.86C245.615 270.871 246.311 269.965 247.3 269.836C248.289 269.702 249.194 270.404 249.323 271.392L259.238 347.386C259.367 348.375 258.671 349.281 257.682 349.41C257.603 349.42 257.524 349.425 257.446 349.425Z" fill="#F1EBFF"/>
<path d="M288.806 252.239C288.473 252.239 288.143 252.148 287.855 251.968C287.412 251.693 287.109 251.239 287.026 250.724L282.231 221.228C282.086 220.339 282.619 219.479 283.481 219.214L356.379 196.74C356.877 196.586 357.419 196.656 357.862 196.93C358.306 197.205 358.609 197.659 358.692 198.174L363.487 227.67C363.632 228.559 363.099 229.419 362.237 229.684L289.338 252.158C289.164 252.212 288.984 252.238 288.806 252.238V252.239ZM286.045 222.2L290.255 248.099L359.671 226.699L355.461 200.8L286.045 222.2Z" fill="#F1EBFF"/>
<path d="M20.4474 57.543C20.0173 57.655 19.5463 57.6088 19.1257 57.3791L3.42224 48.7759C2.54785 48.2973 2.22749 47.1999 2.70612 46.3256C3.18474 45.4512 4.2821 45.1308 5.15648 45.6094L20.8599 54.2126C21.7343 54.6912 22.0547 55.7886 21.5761 56.663C21.3271 57.1167 20.9127 57.4216 20.4474 57.543Z" fill="#F1EBFF"/>
<path d="M21.0943 91.7052C20.8216 92.0561 20.4201 92.3066 19.9466 92.3809L2.25347 95.1316C1.26854 95.285 0.345732 94.6103 0.192246 93.6254C0.0387603 92.6405 0.713471 91.7177 1.6984 91.5642L19.3915 88.8135C20.3764 88.66 21.2993 89.3347 21.4527 90.3196C21.5319 90.8311 21.3893 91.3254 21.0943 91.7052Z" fill="#F1EBFF"/>
</g>
<defs>
<clipPath id="clip0_31_6480">
<rect width="429.391" height="391.542" fill="white"/>
</clipPath>
</defs>
</svg>
