<svg width="155" height="226" viewBox="0 0 155 226" fill="none" xmlns="http://www.w3.org/2000/svg">
<g id="objects" clip-path="url(#clip0_2080_6051)">
<g id="Group">
<path id="Vector" d="M87.9026 225.715L109.801 196.834L144.394 207.649L118.76 127.494L62.2693 145.558L87.9026 225.715Z" fill="url(#paint0_linear_2080_6051)"/>
<path id="Vector_2" d="M66.8813 225.715L44.9834 196.834L10.3904 207.649L36.0237 127.494L92.5146 145.558L66.8813 225.715Z" fill="url(#paint1_linear_2080_6051)"/>
</g>
<g id="Group_2">
<path id="Vector_3" d="M154.013 76.9061C154.013 80.8744 149.568 84.4462 148.971 88.2463C148.357 92.1475 151.476 96.913 150.282 100.589C149.068 104.329 143.734 106.352 141.97 109.807C140.188 113.298 141.673 118.801 139.384 121.947C137.083 125.107 131.387 125.386 128.629 128.143C125.871 130.901 125.593 136.597 122.432 138.898C119.286 141.188 113.784 139.703 110.292 141.485C106.837 143.248 104.815 148.583 101.075 149.797C97.3996 150.991 92.6329 147.872 88.7317 148.485C84.9316 149.083 81.3586 153.528 77.3915 153.528C73.4245 153.528 69.8515 149.083 66.0513 148.485C62.1501 147.872 57.3846 150.991 53.7083 149.797C49.9684 148.583 47.9456 143.248 44.4908 141.485C40.9996 139.703 35.497 141.188 32.351 138.898C29.1903 136.597 28.912 130.902 26.1545 128.143C23.397 125.386 17.7002 125.107 15.3992 121.947C13.1096 118.801 14.5951 113.298 12.8132 109.807C11.0494 106.352 5.71489 104.329 4.5008 100.589C3.30716 96.9142 6.42585 92.1475 5.81256 88.2463C5.21517 84.4462 0.769951 80.8732 0.769951 76.9061C0.769951 72.9391 5.21517 69.3661 5.81256 65.5659C6.42585 61.6647 3.30716 56.8992 4.5008 53.2229C5.71489 49.483 11.0494 47.4602 12.8132 44.0054C14.5951 40.5141 13.1096 35.0116 15.3992 31.8656C17.7002 28.7049 23.3958 28.4266 26.1545 25.6691C28.912 22.9116 29.1903 17.2148 32.351 14.9138C35.497 12.6242 40.9996 14.1097 44.4908 12.3278C47.982 10.5458 49.9684 5.22949 53.7083 4.0154C57.3835 2.82175 62.1501 5.94045 66.0513 5.32716C69.8515 4.72977 73.4245 0.284546 77.3915 0.284546C81.3586 0.284546 84.9316 4.72977 88.7317 5.32716C92.6329 5.94045 97.3984 2.82175 101.075 4.0154C104.815 5.22949 106.837 10.564 110.292 12.3278C113.784 14.1097 119.286 12.6242 122.432 14.9138C125.593 17.2148 125.871 22.9104 128.629 25.6691C131.386 28.4266 137.083 28.7049 139.384 31.8656C141.673 35.0116 140.188 40.5141 141.97 44.0054C143.734 47.4602 149.068 49.483 150.282 53.2229C151.476 56.8981 148.357 61.6647 148.971 65.5659C149.568 69.3661 154.013 72.9391 154.013 76.9061Z" fill="url(#paint2_linear_2080_6051)"/>
<path id="Vector_4" d="M77.3926 135C109.477 135 135.486 108.99 135.486 76.9061C135.486 44.822 109.477 18.8127 77.3926 18.8127C45.3085 18.8127 19.2992 44.822 19.2992 76.9061C19.2992 108.99 45.3085 135 77.3926 135Z" fill="url(#paint3_linear_2080_6051)"/>
<path id="Vector_5" d="M77.3926 121.869C102.225 121.869 122.356 101.739 122.356 76.9062C122.356 52.0736 102.225 31.9429 77.3926 31.9429C52.56 31.9429 32.4293 52.0736 32.4293 76.9062C32.4293 101.739 52.56 121.869 77.3926 121.869Z" fill="url(#paint4_linear_2080_6051)"/>
<path id="Vector_6" d="M82.762 52.9719L86.5304 60.5301C87.4037 62.2826 89.0778 63.4978 91.0142 63.7874L99.3674 65.0355C104.265 65.7669 106.218 71.7806 102.686 75.2502L96.6621 81.1696C95.2652 82.5416 94.6269 84.5098 94.9495 86.4405L96.3441 94.7711C97.1619 99.6547 92.0466 103.371 87.6547 101.085L80.1635 97.1845C78.427 96.2804 76.3588 96.2804 74.6212 97.1845L67.1299 101.085C62.7381 103.371 57.6239 99.6547 58.4405 94.7711L59.8352 86.4405C60.1589 84.5098 59.5194 82.5416 58.1225 81.1696L52.0986 75.2502C48.5665 71.7795 50.5211 65.7669 55.4172 65.0355L63.7705 63.7874C65.7069 63.4978 67.3809 62.2826 68.2543 60.5301L72.0226 52.9719C74.2316 48.5403 80.5542 48.5403 82.7632 52.9719H82.762Z" fill="url(#paint5_linear_2080_6051)"/>
</g>
</g>
<defs>
<linearGradient id="paint0_linear_2080_6051" x1="110.945" y1="200.458" x2="94.1655" y2="147.975" gradientUnits="userSpaceOnUse">
<stop stop-color="#DB66F8"/>
<stop offset="0.265248" stop-color="#C444E4"/>
<stop offset="0.852273" stop-color="#A537BF"/>
</linearGradient>
<linearGradient id="paint1_linear_2080_6051" x1="43.8385" y1="200.461" x2="60.6184" y2="147.978" gradientUnits="userSpaceOnUse">
<stop stop-color="#DB66F8"/>
<stop offset="0.78" stop-color="#C240E2"/>
<stop offset="1" stop-color="#AA41C4"/>
</linearGradient>
<linearGradient id="paint2_linear_2080_6051" x1="27.7229" y1="21.978" x2="134.484" y2="140.041" gradientUnits="userSpaceOnUse">
<stop stop-color="#FBC250"/>
<stop offset="1" stop-color="#D5A544"/>
</linearGradient>
<linearGradient id="paint3_linear_2080_6051" x1="39.5344" y1="35.04" x2="120.908" y2="125.028" gradientUnits="userSpaceOnUse">
<stop stop-color="#D5A544"/>
<stop offset="1" stop-color="#BC923C"/>
</linearGradient>
<linearGradient id="paint4_linear_2080_6051" x1="48.0909" y1="44.5028" x2="111.072" y2="114.151" gradientUnits="userSpaceOnUse">
<stop stop-color="#DB66F8"/>
<stop offset="1" stop-color="#BE3BDF"/>
</linearGradient>
<linearGradient id="paint5_linear_2080_6051" x1="60.4314" y1="60.1519" x2="97.7524" y2="101.423" gradientUnits="userSpaceOnUse">
<stop stop-color="#FBC862"/>
<stop offset="1" stop-color="#FBC250"/>
</linearGradient>
<clipPath id="clip0_2080_6051">
<rect width="153.242" height="225.431" fill="white" transform="translate(0.770996 0.284546)"/>
</clipPath>
</defs>
</svg>
